# Blender 4.0.2
# www.blender.org
mtllib blackboard.mtl
o Cube
v -6.500000 -3.900000 0.100000
v -6.500000 3.900000 0.100000
v -6.500000 -3.900000 -0.100000
v -6.500000 3.900000 -0.100000
v 6.500000 -3.900000 0.100000
v 6.500000 3.900000 0.100000
v 6.500000 -3.900000 -0.100000
v 6.500000 3.900000 -0.100000
v -6.214443 -3.640072 0.100000
v -6.214443 3.640072 0.100000
v 6.214443 3.640072 0.100000
v 6.214443 -3.640072 0.100000
v -6.190771 -3.626206 0.013557
v -6.190771 3.626206 0.013557
v 6.190771 3.626206 0.013557
v 6.190771 -3.626206 0.013557
vn -1.0000 -0.0000 -0.0000
vn -0.0000 -0.0000 -1.0000
vn 1.0000 -0.0000 -0.0000
vn -0.0000 -0.0000 1.0000
vn -0.0000 -1.0000 -0.0000
vn -0.0000 1.0000 -0.0000
vn -0.0000 -0.9874 0.1584
vn -0.9645 -0.0000 0.2641
vn -0.0000 0.9874 0.1584
vn 0.9645 -0.0000 0.2641
vt 0.999398 0.998573
vt 0.002253 0.998573
vt 0.002252 0.001427
vt 0.999398 0.001427
vt 0.002252 -0.995718
vt 0.999398 -0.995718
vt 0.375000 0.500000
vt 0.625000 0.500000
vt 0.625000 0.750000
vt 0.375000 0.750000
vt 0.002253 1.995718
vt 0.036071 1.034907
vt 0.036071 1.959384
vt 0.125000 0.500000
vt 0.125000 0.750000
vt 0.875000 0.500000
vt 0.875000 0.750000
vt 0.999398 1.995718
vt 0.965580 1.959384
vt 0.965580 1.034907
vt 0.996849 0.013655
vt 0.996849 0.999450
vt -0.000669 0.999450
vt -0.000669 0.013655
vt 0.625000 0.000000
vt 0.375000 0.000000
s 0
usemtl Material.006
f 1/1/1 2/2/1 4/3/1 3/4/1
f 3/4/2 4/3/2 8/5/2 7/6/2
f 7/7/3 8/8/3 6/9/3 5/10/3
f 6/11/4 2/2/4 10/12/4 11/13/4
f 3/14/5 7/7/5 5/10/5 1/15/5
f 8/8/6 4/16/6 2/17/6 6/9/6
f 11/9/7 10/17/7 14/17/7 15/9/7
f 5/18/4 6/11/4 11/13/4 12/19/4
f 2/2/4 1/1/4 9/20/4 10/12/4
f 1/1/4 5/18/4 12/19/4 9/20/4
f 12/10/8 11/9/8 15/9/8 16/10/8
f 9/15/9 12/10/9 16/10/9 13/15/9
f 10/25/10 9/26/10 13/26/10 14/25/10
usemtl Material.007
f 16/21/4 15/22/4 14/23/4 13/24/4
