# Blender 4.0.2
# www.blender.org
mtllib chair1.mtl
o Cube.006
v 0.403967 -0.008880 0.516475
v 0.403967 0.567145 0.516475
v 0.477661 -0.008880 0.516475
v 0.477661 0.567145 0.516475
v 0.477661 -0.008880 0.432253
v 0.477661 0.567145 0.432253
v -0.207349 -0.008880 0.516475
v -0.207349 0.567145 0.516475
v -0.281043 -0.008880 0.516475
v -0.281043 0.567145 0.516475
v -0.281043 -0.008880 0.432253
v -0.281043 0.567145 0.432253
v 0.403967 -0.008880 -0.338586
v 0.403967 0.567145 -0.338586
v 0.477661 -0.008880 -0.338586
v 0.477661 0.567145 -0.338586
v 0.477661 -0.008880 -0.254364
v 0.477661 0.567145 -0.254364
v -0.207349 -0.008880 -0.338586
v -0.207349 0.567145 -0.338586
v -0.281043 -0.008880 -0.338586
v -0.281043 0.567145 -0.338586
v -0.281043 -0.008880 -0.254364
v -0.281043 0.567145 -0.254364
v -0.316567 0.525637 0.541536
v -0.316567 0.592017 0.541536
v -0.316567 0.525637 -0.363647
v -0.316567 0.592017 -0.363647
v 0.513184 0.525637 0.541536
v 0.513184 0.592017 0.541536
v 0.513184 0.525637 -0.363647
v 0.513184 0.592017 -0.363647
v -0.315738 1.422378 0.534781
v -0.242720 1.422378 0.534781
v -0.315738 1.422378 -0.356891
v -0.242720 1.422378 -0.356891
v -0.315738 0.593016 0.534781
v -0.242720 0.593016 0.534781
v -0.315738 0.593016 -0.356891
v -0.242720 0.593016 -0.356891
vn 1.0000 -0.0000 -0.0000
vn -0.0000 -0.0000 1.0000
vn -1.0000 -0.0000 -0.0000
vn -0.0000 -0.0000 -1.0000
vn -0.0000 -1.0000 -0.0000
vn -0.0000 1.0000 -0.0000
vt -0.228872 0.660016
vt 1.228872 0.660016
vt 1.228872 0.750000
vt -0.228872 0.750000
vt 1.228872 0.839984
vt -0.228872 0.839984
vt 0.057357 -0.304806
vt 0.942643 -0.304806
vt 0.942643 0.097597
vt 0.057357 0.097597
vt 0.942643 0.500000
vt 0.057357 0.500000
vt 0.942643 0.902403
vt 0.057357 0.902403
vt 0.942643 1.304806
vt 0.057357 1.304806
vt -0.827929 0.500000
vt -0.827929 0.902403
vt 1.827929 0.500000
vt 1.827929 0.902403
s 0
usemtl Material.002
f 5/1/1 6/2/1 4/3/1 3/4/1
f 3/4/2 4/3/2 2/5/2 1/6/2
f 11/1/3 9/4/3 10/3/3 12/2/3
f 9/4/2 7/6/2 8/5/2 10/3/2
f 17/1/1 15/4/1 16/3/1 18/2/1
f 15/4/4 13/6/4 14/5/4 16/3/4
f 23/1/3 24/2/3 22/3/3 21/4/3
f 21/4/4 22/3/4 20/5/4 19/6/4
f 25/7/3 26/8/3 28/9/3 27/10/3
f 27/10/4 28/9/4 32/11/4 31/12/4
f 31/12/1 32/11/1 30/13/1 29/14/1
f 29/14/2 30/13/2 26/15/2 25/16/2
f 27/17/5 31/12/5 29/14/5 25/18/5
f 32/11/6 28/19/6 26/20/6 30/13/6
f 33/7/6 34/8/6 36/9/6 35/10/6
f 35/10/4 36/9/4 40/11/4 39/12/4
f 39/12/5 40/11/5 38/13/5 37/14/5
f 37/14/2 38/13/2 34/15/2 33/16/2
f 35/17/3 39/12/3 37/14/3 33/18/3
f 40/11/1 36/19/1 34/20/1 38/13/1
