# Blender 4.0.2
# www.blender.org
mtllib chair2.mtl
o Cylinder.001
v -0.010725 0.799304 -0.279164
v -0.010725 0.881641 -0.279164
v 0.154352 0.799304 -0.234848
v 0.154352 0.881641 -0.234848
v 0.267017 0.799304 -0.115969
v 0.267017 0.881641 -0.115969
v 0.291502 0.799304 0.039729
v 0.291502 0.881641 0.039729
v 0.220032 0.799304 0.182813
v 0.220032 0.881641 0.182813
v 0.075298 0.799304 0.267856
v 0.075298 0.881641 0.267856
v -0.096748 0.799304 0.267856
v -0.096748 0.881641 0.267856
v -0.241482 0.799304 0.182813
v -0.241482 0.881641 0.182813
v -0.312953 0.799304 0.039729
v -0.312953 0.881641 0.039729
v -0.288468 0.799304 -0.115969
v -0.288468 0.881641 -0.115969
v -0.175802 0.799304 -0.234848
v -0.175802 0.881641 -0.234848
v -0.311457 0.002409 -0.022827
v -0.182361 0.824270 -0.041006
v -0.299116 0.002408 -0.019203
v -0.160528 0.819265 -0.034496
v -0.290694 0.002408 -0.009483
v -0.145627 0.815850 -0.017034
v -0.288863 0.002408 0.003249
v -0.142389 0.815107 0.005836
v -0.294206 0.002409 0.014948
v -0.151842 0.817274 0.026853
v -0.305026 0.002409 0.021902
v -0.170984 0.821662 0.039345
v -0.317888 0.002409 0.021902
v -0.193738 0.826878 0.039345
v -0.328709 0.002409 0.014948
v -0.212880 0.831266 0.026853
v -0.334052 0.002409 0.003249
v -0.222332 0.833432 0.005836
v -0.332221 0.002408 -0.009483
v -0.219094 0.832690 -0.017034
v -0.323799 0.002409 -0.019203
v -0.204193 0.829274 -0.034496
v 0.290003 0.002408 -0.022827
v 0.160906 0.824270 -0.041006
v 0.302344 0.002408 -0.019203
v 0.182739 0.829274 -0.034496
v 0.310766 0.002408 -0.009483
v 0.197639 0.832690 -0.017034
v 0.312597 0.002408 0.003249
v 0.200878 0.833432 0.005836
v 0.307254 0.002409 0.014948
v 0.191425 0.831266 0.026853
v 0.296434 0.002409 0.021902
v 0.172283 0.826878 0.039345
v 0.283571 0.002408 0.021902
v 0.149529 0.821662 0.039345
v 0.272751 0.002409 0.014948
v 0.130387 0.817274 0.026853
v 0.267408 0.002408 0.003249
v 0.120934 0.815107 0.005836
v 0.269239 0.002408 -0.009483
v 0.124173 0.815850 -0.017034
v 0.277661 0.002408 -0.019203
v 0.139074 0.819265 -0.034496
v 0.038223 0.002409 -0.297596
v 0.045081 0.824270 -0.167406
v 0.033537 0.002408 -0.285618
v 0.036694 0.819265 -0.146224
v 0.023120 0.002408 -0.278074
v 0.018000 0.815850 -0.132902
v 0.010278 0.002408 -0.277360
v -0.005066 0.815107 -0.131669
v -0.000912 0.002409 -0.283703
v -0.025179 0.817274 -0.142918
v -0.006896 0.002409 -0.295088
v -0.035955 0.821662 -0.163076
v -0.005775 0.002409 -0.307901
v -0.033972 0.826878 -0.185743
v 0.002095 0.002409 -0.318074
v -0.019859 0.831266 -0.203724
v 0.014216 0.002409 -0.322377
v 0.001902 0.833432 -0.211309
v 0.026739 0.002408 -0.319444
v 0.024403 0.832690 -0.206089
v 0.035689 0.002409 -0.310206
v 0.040499 0.829274 -0.189723
v -0.014198 0.002408 0.301575
v 0.015164 0.824270 0.174554
v -0.018883 0.002408 0.313553
v 0.006776 0.829274 0.195736
v -0.029301 0.002408 0.321097
v -0.011918 0.832690 0.209059
v -0.042143 0.002408 0.321811
v -0.034983 0.833432 0.210291
v -0.053333 0.002409 0.315468
v -0.055097 0.831266 0.199043
v -0.059317 0.002409 0.304083
v -0.065873 0.826878 0.178885
v -0.058196 0.002408 0.291270
v -0.063889 0.821662 0.156217
v -0.050326 0.002409 0.281097
v -0.049777 0.817274 0.138237
v -0.038205 0.002408 0.276794
v -0.028016 0.815107 0.130652
v -0.025681 0.002408 0.279727
v -0.005515 0.815850 0.135871
v -0.016732 0.002408 0.288965
v 0.010582 0.819265 0.152237
vn -0.0000 -0.0000 -1.0000
vn 0.5118 -0.0000 -0.8591
vn 0.8973 -0.0000 -0.4415
vn 0.9882 -0.0000 0.1530
vn 0.7307 -0.0000 0.6827
vn 0.2625 -0.0000 0.9649
vn -0.2625 -0.0000 0.9649
vn -0.7307 -0.0000 0.6827
vn -0.9882 -0.0000 0.1530
vn -0.8973 -0.0000 -0.4415
vn -0.0000 1.0000 -0.0000
vn -0.5118 -0.0000 -0.8591
vn -0.0000 -1.0000 -0.0000
vn -0.0047 -0.0214 -0.9998
vn -0.2316 0.0148 -0.9727
vn 0.3415 -0.0754 -0.9368
vn 0.5301 -0.1057 -0.8413
vn 0.4940 0.8508 -0.1790
vn 0.8949 -0.1634 -0.4154
vn 0.6914 0.7168 0.0909
vn 0.9741 -0.1759 0.1423
vn 0.3782 0.9014 0.2109
vn 0.7428 -0.1393 0.6549
vn 0.0540 -0.0301 0.9981
vn 0.2739 -0.0653 0.9595
vn -0.4941 0.0560 0.8676
vn -0.2832 0.0223 0.9588
vn -0.8736 0.1152 0.4729
vn -0.7508 0.0955 0.6536
vn -0.9895 0.1329 0.0568
vn -0.9811 0.1315 0.1419
vn -0.9634 0.1291 -0.2351
vn -0.9023 0.1192 -0.4144
vn 0.2234 0.9747 -0.0000
vn -0.7136 0.0903 -0.6947
vn -0.5388 0.0624 -0.8401
vn 0.0047 -0.0214 -0.9998
vn 0.2316 0.0148 -0.9727
vn 0.7136 0.0903 -0.6947
vn 0.5388 0.0624 -0.8401
vn 0.9634 0.1291 -0.2351
vn 0.9023 0.1192 -0.4144
vn 0.9895 0.1329 0.0568
vn 0.9811 0.1315 0.1419
vn 0.8735 0.1152 0.4729
vn 0.7508 0.0955 0.6535
vn 0.4941 0.0560 0.8676
vn 0.2832 0.0223 0.9588
vn -0.0540 -0.0301 0.9981
vn -0.2739 -0.0653 0.9595
vn -0.3782 0.9014 0.2109
vn -0.7428 -0.1393 0.6549
vn -0.6914 0.7168 0.0909
vn -0.9741 -0.1759 0.1423
vn -0.4940 0.8508 -0.1790
vn -0.8949 -0.1634 -0.4154
vn -0.2234 0.9747 -0.0000
vn -0.3415 -0.0754 -0.9368
vn -0.5301 -0.1057 -0.8413
vn 0.9964 -0.0214 0.0824
vn 0.9892 0.0148 -0.1459
vn 0.9035 -0.0754 0.4219
vn 0.7919 -0.1057 0.6014
vn 0.4479 -0.1543 0.8807
vn 0.3358 -0.1634 0.9277
vn -0.2579 -0.1751 0.9502
vn -0.2266 -0.1759 0.9580
vn -0.8335 -0.1180 0.5398
vn -0.7171 -0.1393 0.6829
vn -0.9990 -0.0301 -0.0332
vn -0.9798 -0.0653 0.1893
vn -0.8212 0.0560 -0.5678
vn -0.9305 0.0223 -0.3657
vn -0.3950 0.1152 -0.9114
vn -0.5856 0.0955 -0.8049
vn 0.0296 0.1329 -0.9907
vn -0.0558 0.1315 -0.9897
vn 0.3182 0.1291 -0.9392
vn 0.4914 0.1192 -0.8627
vn 0.7543 0.0903 -0.6503
vn 0.8839 0.0624 -0.4635
vn 0.9955 -0.0214 0.0919
vn 0.9488 0.0148 0.3155
vn 0.6299 0.0903 0.7714
vn 0.7900 0.0624 0.6100
vn 0.1502 0.1291 0.9802
vn 0.3341 0.1192 0.9350
vn -0.1429 0.1329 0.9808
vn -0.2269 0.1315 0.9650
vn -0.5472 0.1152 0.8290
vn -0.7165 0.0955 0.6910
vn -0.9074 0.0560 0.4166
vn -0.9798 0.0223 0.1986
vn -0.9896 -0.0301 -0.1408
vn -0.9320 -0.0653 -0.3565
vn -0.7271 -0.1180 -0.6763
vn -0.5876 -0.1393 -0.7970
vn -0.0889 -0.1751 -0.9805
vn -0.0568 -0.1759 -0.9828
vn 0.5941 -0.1543 -0.7895
vn 0.4918 -0.1634 -0.8553
vn 0.9630 -0.0754 -0.2586
vn 0.8843 -0.1057 -0.4547
vt 1.000000 0.700000
vt 1.000000 0.800000
vt 0.909091 0.800000
vt 0.909091 0.700000
vt 0.818182 0.800000
vt 0.818182 0.700000
vt 0.727273 0.800000
vt 0.727273 0.700000
vt 0.636364 0.800000
vt 0.636364 0.700000
vt 0.545454 0.800000
vt 0.545454 0.700000
vt 0.454545 0.800000
vt 0.454545 0.700000
vt 0.363636 0.800000
vt 0.363636 0.700000
vt 0.272727 0.800000
vt 0.272727 0.700000
vt 0.181818 0.800000
vt 0.181818 0.700000
vt 0.742254 0.872740
vt 0.500000 0.943872
vt 0.257746 0.872740
vt 0.092407 0.681927
vt 0.056475 0.432016
vt 0.161359 0.202351
vt 0.373760 0.065850
vt 0.626240 0.065850
vt 0.838641 0.202351
vt 0.943525 0.432016
vt 0.907593 0.681927
vt 0.090909 0.800000
vt 0.090909 0.700000
vt -0.000000 0.800000
vt -0.000000 0.700000
vt 0.750000 0.490000
vt 0.879754 0.451901
vt 0.968312 0.349700
vt 0.987557 0.215844
vt 0.931380 0.092833
vt 0.817616 0.019722
vt 0.682384 0.019722
vt 0.568620 0.092833
vt 0.512443 0.215844
vt 0.531688 0.349700
vt 0.620246 0.451901
vt 1.000000 0.500000
vt 1.000000 1.000000
vt 0.909091 1.000000
vt 0.909091 0.500000
vt 0.818182 1.000000
vt 0.818182 0.500000
vt 0.727273 1.000000
vt 0.727273 0.500000
vt 0.636364 1.000000
vt 0.636364 0.500000
vt 0.545454 1.000000
vt 0.545454 0.500000
vt 0.454545 1.000000
vt 0.454545 0.500000
vt 0.363636 1.000000
vt 0.363636 0.500000
vt 0.272727 1.000000
vt 0.272727 0.500000
vt 0.181818 1.000000
vt 0.181818 0.500000
vt 0.379754 0.451901
vt 0.250000 0.490000
vt 0.120246 0.451901
vt 0.031688 0.349700
vt 0.012443 0.215844
vt 0.068620 0.092833
vt 0.182384 0.019722
vt 0.317616 0.019722
vt 0.431380 0.092833
vt 0.487557 0.215844
vt 0.468312 0.349700
vt 0.090909 1.000000
vt 0.090909 0.500000
vt -0.000000 1.000000
vt -0.000000 0.500000
s 1
usemtl Material.002
f 1/1/1 2/2/1 4/3/2 3/4/2
f 3/4/2 4/3/2 6/5/3 5/6/3
f 5/6/3 6/5/3 8/7/4 7/8/4
f 7/8/4 8/7/4 10/9/5 9/10/5
f 9/10/5 10/9/5 12/11/6 11/12/6
f 11/12/6 12/11/6 14/13/7 13/14/7
f 13/14/7 14/13/7 16/15/8 15/16/8
f 15/16/8 16/15/8 18/17/9 17/18/9
f 17/18/9 18/17/9 20/19/10 19/20/10
f 4/21/11 2/22/11 22/23/11 20/24/11 18/25/11 16/26/11 14/27/11 12/28/11 10/29/11 8/30/11 6/31/11
f 19/20/10 20/19/10 22/32/12 21/33/12
f 21/33/12 22/32/12 2/34/1 1/35/1
f 1/36/13 3/37/13 5/38/13 7/39/13 9/40/13 11/41/13 13/42/13 15/43/13 17/44/13 19/45/13 21/46/13
f 23/47/14 24/48/15 26/49/16 25/50/17
f 25/50/17 26/49/16 28/51/18 27/52/19
f 27/52/19 28/51/18 30/53/20 29/54/21
f 29/54/21 30/53/20 32/55/22 31/56/23
f 31/56/23 32/55/22 34/57/24 33/58/25
f 33/58/25 34/57/24 36/59/26 35/60/27
f 35/60/27 36/59/26 38/61/28 37/62/29
f 37/62/29 38/61/28 40/63/30 39/64/31
f 39/64/31 40/63/30 42/65/32 41/66/33
f 26/67/34 24/68/34 44/69/34 42/70/34 40/71/34 38/72/34 36/73/34 34/74/34 32/75/22 30/76/20 28/77/18
f 41/66/33 42/65/32 44/78/35 43/79/36
f 43/79/36 44/78/35 24/80/15 23/81/14
f 23/36/13 25/37/13 27/38/13 29/39/13 31/40/13 33/41/13 35/42/13 37/43/13 39/44/13 41/45/13 43/46/13
f 45/47/37 46/48/38 48/49/39 47/50/40
f 47/50/40 48/49/39 50/51/41 49/52/42
f 49/52/42 50/51/41 52/53/43 51/54/44
f 51/54/44 52/53/43 54/55/45 53/56/46
f 53/56/46 54/55/45 56/57/47 55/58/48
f 55/58/48 56/57/47 58/59/49 57/60/50
f 57/60/50 58/59/49 60/61/51 59/62/52
f 59/62/52 60/61/51 62/63/53 61/64/54
f 61/64/54 62/63/53 64/65/55 63/66/56
f 48/67/57 46/68/57 66/69/57 64/70/55 62/71/53 60/72/51 58/73/57 56/74/57 54/75/57 52/76/57 50/77/57
f 63/66/56 64/65/55 66/78/58 65/79/59
f 65/79/59 66/78/58 46/80/38 45/81/37
f 45/36/13 47/37/13 49/38/13 51/39/13 53/40/13 55/41/13 57/42/13 59/43/13 61/44/13 63/45/13 65/46/13
f 67/47/60 68/48/61 70/49/62 69/50/63
f 69/50/63 70/49/62 72/51/64 71/52/65
f 71/52/65 72/51/64 74/53/66 73/54/67
f 73/54/67 74/53/66 76/55/68 75/56/69
f 75/56/69 76/55/68 78/57/70 77/58/71
f 77/58/71 78/57/70 80/59/72 79/60/73
f 79/60/73 80/59/72 82/61/74 81/62/75
f 81/62/75 82/61/74 84/63/76 83/64/77
f 83/64/77 84/63/76 86/65/78 85/66/79
f 85/66/79 86/65/78 88/78/80 87/79/81
f 87/79/81 88/78/80 68/80/61 67/81/60
f 67/36/13 69/37/13 71/38/13 73/39/13 75/40/13 77/41/13 79/42/13 81/43/13 83/44/13 85/45/13 87/46/13
f 89/47/82 90/48/83 92/49/84 91/50/85
f 91/50/85 92/49/84 94/51/86 93/52/87
f 93/52/87 94/51/86 96/53/88 95/54/89
f 95/54/89 96/53/88 98/55/90 97/56/91
f 97/56/91 98/55/90 100/57/92 99/58/93
f 99/58/93 100/57/92 102/59/94 101/60/95
f 101/60/95 102/59/94 104/61/96 103/62/97
f 103/62/97 104/61/96 106/63/98 105/64/99
f 105/64/99 106/63/98 108/65/100 107/66/101
f 107/66/101 108/65/100 110/78/102 109/79/103
f 109/79/103 110/78/102 90/80/83 89/81/82
f 89/36/13 91/37/13 93/38/13 95/39/13 97/40/13 99/41/13 101/42/13 103/43/13 105/44/13 107/45/13 109/46/13
