# Blender 4.0.2
# www.blender.org
mtllib desk3.mtl
o Cylinder
v -0.010154 1.026560 -1.018566
v -0.010154 1.128416 -1.018566
v 0.540524 1.026560 -0.856872
v 0.540524 1.128416 -0.856872
v 0.916366 1.026560 -0.423128
v 0.916366 1.128416 -0.423128
v 0.998044 1.026560 0.144957
v 0.998044 1.128416 0.144957
v 0.759626 1.026560 0.667019
v 0.759626 1.128416 0.667019
v 0.276809 1.026560 0.977307
v 0.276809 1.128416 0.977307
v -0.297117 1.026560 0.977307
v -0.297117 1.128416 0.977307
v -0.779935 1.026560 0.667019
v -0.779935 1.128416 0.667019
v -1.018352 1.026560 0.144957
v -1.018352 1.128416 0.144957
v -0.936674 1.026560 -0.423128
v -0.936674 1.128416 -0.423128
v -0.560832 1.026560 -0.856872
v -0.560832 1.128416 -0.856872
v -0.010155 0.461977 -0.028995
v -0.010154 1.033643 -0.052086
v 0.005521 0.461977 -0.024392
v 0.018005 1.033643 -0.043817
v 0.016220 0.461977 -0.012045
v 0.037225 1.033643 -0.021637
v 0.018545 0.461977 0.004126
v 0.041401 1.033643 0.007413
v 0.011758 0.461977 0.018988
v 0.029209 1.033643 0.034109
v -0.001986 0.461977 0.027820
v 0.004520 1.033643 0.049976
v -0.018323 0.461977 0.027820
v -0.024829 1.033643 0.049976
v -0.032067 0.461977 0.018988
v -0.049518 1.033643 0.034109
v -0.038854 0.461977 0.004126
v -0.061710 1.033643 0.007413
v -0.036529 0.461977 -0.012045
v -0.057533 1.033643 -0.021637
v -0.025830 0.461977 -0.024392
v -0.038314 1.033643 -0.043817
v 0.352296 0.002668 -0.038282
v -0.011610 0.566134 -0.023601
v 0.372992 0.002668 -0.032205
v -0.000046 0.571526 -0.019855
v 0.387118 0.002668 -0.015903
v 0.007847 0.575207 -0.009804
v 0.390188 0.002668 0.005448
v 0.009562 0.576007 0.003359
v 0.381227 0.002668 0.025069
v 0.004555 0.573672 0.015456
v 0.363081 0.002668 0.036731
v -0.005584 0.568944 0.022645
v 0.341510 0.002668 0.036731
v -0.017637 0.563323 0.022645
v 0.323364 0.002668 0.025069
v -0.027776 0.558596 0.015456
v 0.314403 0.002668 0.005448
v -0.032783 0.556261 0.003359
v 0.317473 0.002668 -0.015903
v -0.031068 0.557061 -0.009804
v 0.331599 0.002668 -0.032205
v -0.023175 0.560741 -0.019855
v -0.372604 0.002668 0.038282
v -0.008698 0.566134 0.023601
v -0.393301 0.002668 0.032205
v -0.020262 0.571526 0.019855
v -0.407427 0.002668 0.015903
v -0.028155 0.575207 0.009804
v -0.410496 0.002668 -0.005448
v -0.029870 0.576007 -0.003359
v -0.401536 0.002668 -0.025070
v -0.024864 0.573672 -0.015456
v -0.383389 0.002668 -0.036731
v -0.014724 0.568944 -0.022645
v -0.361819 0.002668 -0.036731
v -0.002672 0.563323 -0.022645
v -0.343672 0.002668 -0.025069
v 0.007467 0.558596 -0.015456
v -0.334712 0.002668 -0.005448
v 0.012474 0.556261 -0.003359
v -0.337781 0.002668 0.015903
v 0.010759 0.557061 0.009804
v -0.351907 0.002668 0.032205
v 0.002866 0.560741 0.019855
v -0.003607 0.002668 0.364407
v 0.013484 0.566134 0.000606
v -0.011465 0.002668 0.384496
v 0.008744 0.571526 0.011800
v -0.028936 0.002668 0.397147
v -0.001956 0.575207 0.018787
v -0.050474 0.002668 0.398344
v -0.015219 0.576007 0.019348
v -0.069239 0.002668 0.387707
v -0.026833 0.573672 0.013306
v -0.079275 0.002668 0.368614
v -0.033112 0.568944 0.002579
v -0.077395 0.002668 0.347125
v -0.032061 0.563323 -0.009428
v -0.064196 0.002668 0.330064
v -0.024015 0.558596 -0.018902
v -0.043869 0.002668 0.322848
v -0.011528 0.556261 -0.022835
v -0.022866 0.002668 0.327767
v 0.001436 0.557061 -0.019979
v -0.007858 0.002668 0.343259
v 0.010760 0.560741 -0.011241
v -0.016701 0.002668 -0.364407
v -0.033793 0.566134 -0.000606
v -0.008843 0.002668 -0.384495
v -0.029052 0.571526 -0.011800
v 0.008628 0.002668 -0.397147
v -0.018352 0.575207 -0.018787
v 0.030165 0.002668 -0.398344
v -0.005090 0.576007 -0.019348
v 0.048931 0.002668 -0.387707
v 0.006525 0.573672 -0.013306
v 0.058967 0.002668 -0.368613
v 0.012803 0.568944 -0.002579
v 0.057087 0.002668 -0.347125
v 0.011753 0.563323 0.009428
v 0.043888 0.002668 -0.330064
v 0.003707 0.558596 0.018902
v 0.023560 0.002668 -0.322847
v -0.008780 0.556261 0.022835
v 0.002558 0.002668 -0.327767
v -0.021744 0.557061 0.019979
v -0.012451 0.002668 -0.343259
v -0.031068 0.560741 0.011241
vn -0.0000 -0.0000 -1.0000
vn 0.5406 -0.0000 -0.8413
vn 0.9096 -0.0000 -0.4154
vn 0.9898 -0.0000 0.1423
vn 0.7557 -0.0000 0.6549
vn 0.2817 -0.0000 0.9595
vn -0.2817 -0.0000 0.9595
vn -0.7557 -0.0000 0.6549
vn -0.9898 -0.0000 0.1423
vn -0.9096 -0.0000 -0.4154
vn -0.0000 1.0000 -0.0000
vn -0.5406 -0.0000 -0.8413
vn -0.0000 -1.0000 -0.0000
vn -0.0000 -0.0404 -0.9992
vn 0.5402 -0.0404 -0.8406
vn 0.9089 -0.0404 -0.4151
vn 0.9890 -0.0404 0.1422
vn 0.7551 -0.0404 0.6543
vn 0.2815 -0.0404 0.9587
vn -0.2815 -0.0404 0.9587
vn -0.7551 -0.0404 0.6543
vn -0.9890 -0.0404 0.1422
vn -0.9089 -0.0404 -0.4151
vn -0.5402 -0.0404 -0.8406
vn 0.0019 0.0266 -0.9996
vn 0.2351 0.1760 -0.9559
vn 0.6441 0.4349 -0.6292
vn 0.4902 0.3386 -0.8032
vn 0.8220 0.5460 -0.1620
vn 0.7720 0.5158 -0.3714
vn 0.8327 0.5534 0.0177
vn 0.8261 0.5495 0.1251
vn 0.7620 0.5087 0.4007
vn 0.6609 0.4462 0.6034
vn 0.4665 0.3231 0.8234
vn 0.2641 0.1949 0.9446
vn -0.0298 0.0059 0.9995
vn -0.2629 -0.1450 0.9539
vn -0.6288 0.6922 0.3543
vn -0.6706 -0.4128 0.6164
vn -0.9723 -0.1837 0.1444
vn -0.8407 -0.5262 0.1281
vn -0.7839 0.5417 -0.3035
vn -0.7851 -0.4890 -0.3801
vn -0.4226 0.9063 -0.0000
vn -0.2952 -0.1664 -0.9408
vn -0.4944 -0.2965 -0.8171
vn -0.0019 0.0266 0.9996
vn -0.2351 0.1760 0.9559
vn -0.6441 0.4349 0.6292
vn -0.4902 0.3386 0.8032
vn -0.8220 0.5460 0.1620
vn -0.7720 0.5158 0.3714
vn -0.8327 0.5534 -0.0177
vn -0.8261 0.5495 -0.1251
vn -0.7620 0.5087 -0.4007
vn -0.6609 0.4462 -0.6034
vn -0.4665 0.3231 -0.8234
vn -0.2641 0.1949 -0.9446
vn 0.0298 0.0059 -0.9995
vn 0.2629 -0.1450 -0.9539
vn 0.6288 0.6922 -0.3543
vn 0.6706 -0.4128 -0.6164
vn 0.9723 -0.1837 -0.1444
vn 0.8407 -0.5262 -0.1281
vn 0.7839 0.5417 0.3035
vn 0.7851 -0.4890 0.3801
vn 0.4226 0.9063 -0.0000
vn 0.2952 -0.1664 0.9408
vn 0.4944 -0.2965 0.8171
vn 0.9957 0.0266 0.0890
vn 0.9318 0.1760 0.3175
vn 0.5707 0.4349 0.6965
vn 0.7574 0.3386 0.5583
vn 0.0897 0.5460 0.8330
vn 0.3027 0.5158 0.8014
vn -0.0902 0.5534 0.8280
vn -0.1966 0.5495 0.8120
vn -0.4656 0.5087 0.7242
vn -0.6587 0.4462 0.6058
vn -0.8610 0.3231 0.3929
vn -0.9640 0.1949 0.1808
vn -0.9931 0.0059 -0.1168
vn -0.9273 -0.1450 -0.3450
vn -0.2981 0.6922 -0.6572
vn -0.5556 -0.4128 -0.7217
vn -0.0591 -0.1837 -0.9812
vn -0.0543 -0.5262 -0.8486
vn 0.3706 0.5417 -0.7544
vn 0.4471 -0.4890 -0.7490
vn 0.0368 0.9063 -0.4210
vn 0.9630 -0.1664 -0.2121
vn 0.8570 -0.2965 -0.4213
vn -0.9957 0.0266 -0.0890
vn -0.9318 0.1760 -0.3175
vn -0.5707 0.4349 -0.6965
vn -0.7574 0.3386 -0.5583
vn -0.0897 0.5460 -0.8330
vn -0.3027 0.5158 -0.8014
vn 0.0902 0.5534 -0.8280
vn 0.1966 0.5495 -0.8120
vn 0.4656 0.5087 -0.7242
vn 0.6587 0.4462 -0.6058
vn 0.8610 0.3231 -0.3929
vn 0.9640 0.1949 -0.1808
vn 0.9931 0.0059 0.1168
vn 0.9273 -0.1450 0.3450
vn 0.2981 0.6922 0.6572
vn 0.5556 -0.4128 0.7217
vn 0.0591 -0.1837 0.9812
vn 0.0543 -0.5262 0.8486
vn -0.3706 0.5417 0.7544
vn -0.4471 -0.4890 0.7490
vn -0.0368 0.9063 0.4210
vn -0.9630 -0.1664 0.2121
vn -0.8570 -0.2965 0.4213
vt 1.000000 0.700000
vt 1.000000 0.800000
vt 0.909091 0.800000
vt 0.909091 0.700000
vt 0.818182 0.800000
vt 0.818182 0.700000
vt 0.727273 0.800000
vt 0.727273 0.700000
vt 0.636364 0.800000
vt 0.636364 0.700000
vt 0.545454 0.800000
vt 0.545454 0.700000
vt 0.454545 0.800000
vt 0.454545 0.700000
vt 0.363636 0.800000
vt 0.363636 0.700000
vt 0.272727 0.800000
vt 0.272727 0.700000
vt 0.181818 0.800000
vt 0.181818 0.700000
vt 0.742254 0.872740
vt 0.500000 0.943872
vt 0.257746 0.872740
vt 0.092407 0.681927
vt 0.056475 0.432016
vt 0.161359 0.202351
vt 0.373760 0.065850
vt 0.626240 0.065850
vt 0.838641 0.202351
vt 0.943525 0.432016
vt 0.907593 0.681927
vt 0.090909 0.800000
vt 0.090909 0.700000
vt -0.000000 0.800000
vt -0.000000 0.700000
vt 0.750000 0.490000
vt 0.879754 0.451901
vt 0.968312 0.349700
vt 0.987557 0.215844
vt 0.931380 0.092833
vt 0.817616 0.019722
vt 0.682384 0.019722
vt 0.568620 0.092833
vt 0.512443 0.215844
vt 0.531688 0.349700
vt 0.620246 0.451901
vt 1.000000 0.500000
vt 1.000000 1.000000
vt 0.909091 1.000000
vt 0.909091 0.500000
vt 0.818182 1.000000
vt 0.818182 0.500000
vt 0.727273 1.000000
vt 0.727273 0.500000
vt 0.636364 1.000000
vt 0.636364 0.500000
vt 0.545454 1.000000
vt 0.545454 0.500000
vt 0.454545 1.000000
vt 0.454545 0.500000
vt 0.363636 1.000000
vt 0.363636 0.500000
vt 0.272727 1.000000
vt 0.272727 0.500000
vt 0.181818 1.000000
vt 0.181818 0.500000
vt 0.379754 0.451901
vt 0.250000 0.490000
vt 0.120246 0.451901
vt 0.031688 0.349700
vt 0.012443 0.215844
vt 0.068620 0.092833
vt 0.182384 0.019722
vt 0.317616 0.019722
vt 0.431380 0.092833
vt 0.487557 0.215844
vt 0.468312 0.349700
vt 0.090909 1.000000
vt 0.090909 0.500000
vt -0.000000 1.000000
vt -0.000000 0.500000
s 1
usemtl Material.002
f 1/1/1 2/2/1 4/3/2 3/4/2
f 3/4/2 4/3/2 6/5/3 5/6/3
f 5/6/3 6/5/3 8/7/4 7/8/4
f 7/8/4 8/7/4 10/9/5 9/10/5
f 9/10/5 10/9/5 12/11/6 11/12/6
f 11/12/6 12/11/6 14/13/7 13/14/7
f 13/14/7 14/13/7 16/15/8 15/16/8
f 15/16/8 16/15/8 18/17/9 17/18/9
f 17/18/9 18/17/9 20/19/10 19/20/10
f 4/21/11 2/22/11 22/23/11 20/24/11 18/25/11 16/26/11 14/27/11 12/28/11 10/29/11 8/30/11 6/31/11
f 19/20/10 20/19/10 22/32/12 21/33/12
f 21/33/12 22/32/12 2/34/1 1/35/1
f 1/36/13 3/37/13 5/38/13 7/39/13 9/40/13 11/41/13 13/42/13 15/43/13 17/44/13 19/45/13 21/46/13
f 23/47/14 24/48/14 26/49/15 25/50/15
f 25/50/15 26/49/15 28/51/16 27/52/16
f 27/52/16 28/51/16 30/53/17 29/54/17
f 29/54/17 30/53/17 32/55/18 31/56/18
f 31/56/18 32/55/18 34/57/19 33/58/19
f 33/58/19 34/57/19 36/59/20 35/60/20
f 35/60/20 36/59/20 38/61/21 37/62/21
f 37/62/21 38/61/21 40/63/22 39/64/22
f 39/64/22 40/63/22 42/65/23 41/66/23
f 26/67/11 24/68/11 44/69/11 42/70/11 40/71/11 38/72/11 36/73/11 34/74/11 32/75/11 30/76/11 28/77/11
f 41/66/23 42/65/23 44/78/24 43/79/24
f 43/79/24 44/78/24 24/80/14 23/81/14
f 23/36/13 25/37/13 27/38/13 29/39/13 31/40/13 33/41/13 35/42/13 37/43/13 39/44/13 41/45/13 43/46/13
f 45/47/25 46/48/26 48/49/27 47/50/28
f 47/50/28 48/49/27 50/51/29 49/52/30
f 49/52/30 50/51/29 52/53/31 51/54/32
f 51/54/32 52/53/31 54/55/33 53/56/34
f 53/56/34 54/55/33 56/57/35 55/58/36
f 55/58/36 56/57/35 58/59/37 57/60/38
f 57/60/38 58/59/37 60/61/39 59/62/40
f 59/62/40 60/61/39 62/63/41 61/64/42
f 61/64/42 62/63/41 64/65/43 63/66/44
f 48/67/45 46/68/45 66/69/45 64/70/43 62/71/41 60/72/39 58/73/45 56/74/45 54/75/45 52/76/45 50/77/45
f 63/66/44 64/65/43 66/78/46 65/79/47
f 65/79/47 66/78/46 46/80/26 45/81/25
f 45/36/13 47/37/13 49/38/13 51/39/13 53/40/13 55/41/13 57/42/13 59/43/13 61/44/13 63/45/13 65/46/13
f 67/47/48 68/48/49 70/49/50 69/50/51
f 69/50/51 70/49/50 72/51/52 71/52/53
f 71/52/53 72/51/52 74/53/54 73/54/55
f 73/54/55 74/53/54 76/55/56 75/56/57
f 75/56/57 76/55/56 78/57/58 77/58/59
f 77/58/59 78/57/58 80/59/60 79/60/61
f 79/60/61 80/59/60 82/61/62 81/62/63
f 81/62/63 82/61/62 84/63/64 83/64/65
f 83/64/65 84/63/64 86/65/66 85/66/67
f 70/67/68 68/68/68 88/69/68 86/70/66 84/71/64 82/72/62 80/73/68 78/74/68 76/75/68 74/76/68 72/77/68
f 85/66/67 86/65/66 88/78/69 87/79/70
f 87/79/70 88/78/69 68/80/49 67/81/48
f 67/36/13 69/37/13 71/38/13 73/39/13 75/40/13 77/41/13 79/42/13 81/43/13 83/44/13 85/45/13 87/46/13
f 89/47/71 90/48/72 92/49/73 91/50/74
f 91/50/74 92/49/73 94/51/75 93/52/76
f 93/52/76 94/51/75 96/53/77 95/54/78
f 95/54/78 96/53/77 98/55/79 97/56/80
f 97/56/80 98/55/79 100/57/81 99/58/82
f 99/58/82 100/57/81 102/59/83 101/60/84
f 101/60/84 102/59/83 104/61/85 103/62/86
f 103/62/86 104/61/85 106/63/87 105/64/88
f 105/64/88 106/63/87 108/65/89 107/66/90
f 92/67/91 90/68/91 110/69/91 108/70/89 106/71/87 104/72/85 102/73/91 100/74/91 98/75/91 96/76/91 94/77/91
f 107/66/90 108/65/89 110/78/92 109/79/93
f 109/79/93 110/78/92 90/80/72 89/81/71
f 89/36/13 91/37/13 93/38/13 95/39/13 97/40/13 99/41/13 101/42/13 103/43/13 105/44/13 107/45/13 109/46/13
f 111/47/94 112/48/95 114/49/96 113/50/97
f 113/50/97 114/49/96 116/51/98 115/52/99
f 115/52/99 116/51/98 118/53/100 117/54/101
f 117/54/101 118/53/100 120/55/102 119/56/103
f 119/56/103 120/55/102 122/57/104 121/58/105
f 121/58/105 122/57/104 124/59/106 123/60/107
f 123/60/107 124/59/106 126/61/108 125/62/109
f 125/62/109 126/61/108 128/63/110 127/64/111
f 127/64/111 128/63/110 130/65/112 129/66/113
f 114/67/114 112/68/114 132/69/114 130/70/112 128/71/110 126/72/108 124/73/114 122/74/114 120/75/114 118/76/114 116/77/114
f 129/66/113 130/65/112 132/78/115 131/79/116
f 131/79/116 132/78/115 112/80/95 111/81/94
f 111/36/13 113/37/13 115/38/13 117/39/13 119/40/13 121/41/13 123/42/13 125/43/13 127/44/13 129/45/13 131/46/13
