# Blender 4.0.2
# www.blender.org
mtllib desk2.mtl
o Cube.002
v -1.154757 0.024000 0.805495
v -1.154757 0.976000 0.805495
v -1.154757 0.024000 -0.360905
v -1.154757 0.976000 -0.360905
v -0.307517 0.024000 0.805495
v -0.307517 0.976000 0.805495
v -0.307517 0.024000 -0.360905
v -0.307517 0.976000 -0.360905
v -1.219098 0.960000 0.870295
v -1.219098 1.040000 0.870295
v -1.219098 0.960000 -0.425705
v -1.219098 1.040000 -0.425705
v 1.180902 0.960000 0.870295
v 1.180902 1.040000 0.870295
v 1.180902 0.960000 -0.425705
v 1.180902 1.040000 -0.425705
v 1.015050 0.024000 0.805495
v 1.015050 0.976000 0.805495
v 1.015050 0.024000 -0.360905
v 1.015050 0.976000 -0.360905
v 1.123050 0.024000 0.805495
v 1.123050 0.976000 0.805495
v 1.123050 0.024000 -0.360905
v 1.123050 0.976000 -0.360905
vn -1.0000 -0.0000 -0.0000
vn -0.0000 -0.0000 -1.0000
vn 1.0000 -0.0000 -0.0000
vn -0.0000 -0.0000 1.0000
vn -0.0000 -1.0000 -0.0000
vn -0.0000 1.0000 -0.0000
vt 0.375000 -0.362083
vt 1.048502 -0.362083
vt 1.048502 0.068959
vt 0.375000 0.068959
vt 1.048502 0.500000
vt 0.375000 0.500000
vt 1.048502 0.931041
vt 0.375000 0.931041
vt 1.048502 1.362083
vt 0.375000 1.362083
vt -0.298502 0.500000
vt -0.298502 0.931041
vt 0.625000 0.500000
vt 0.875000 0.500000
vt 0.875000 0.750000
vt 0.625000 0.750000
vt 0.007180 -1.471281
vt 0.992820 -1.471281
vt 0.992820 -0.485640
vt 0.007180 -0.485640
vt 0.992820 0.500000
vt 0.007180 0.500000
vt 0.992820 1.485640
vt 0.007180 1.485640
vt 0.992820 2.471281
vt 0.007180 2.471281
vt -0.978461 0.500000
vt -0.978461 1.485640
vt 1.978461 0.500000
vt 1.978461 1.485640
s 0
usemtl Material.002
f 1/1/1 2/2/1 4/3/1 3/4/1
f 3/4/2 4/3/2 8/5/2 7/6/2
f 7/6/3 8/5/3 6/7/3 5/8/3
f 5/8/4 6/7/4 2/9/4 1/10/4
f 3/11/5 7/6/5 5/8/5 1/12/5
f 8/13/6 4/14/6 2/15/6 6/16/6
f 9/17/1 10/18/1 12/19/1 11/20/1
f 11/20/2 12/19/2 16/21/2 15/22/2
f 15/22/3 16/21/3 14/23/3 13/24/3
f 13/24/4 14/23/4 10/25/4 9/26/4
f 11/27/5 15/22/5 13/24/5 9/28/5
f 16/21/6 12/29/6 10/30/6 14/23/6
f 17/1/1 18/2/1 20/3/1 19/4/1
f 19/4/2 20/3/2 24/5/2 23/6/2
f 23/6/3 24/5/3 22/7/3 21/8/3
f 21/8/4 22/7/4 18/9/4 17/10/4
f 19/11/5 23/6/5 21/8/5 17/12/5
f 24/13/6 20/14/6 18/15/6 22/16/6
