# Blender 4.0.2
# www.blender.org
mtllib hill.mtl
o Plane
v -3.265900 0.202226 -3.105937
v 2.950252 0.516370 -0.944211
v -0.115936 0.485459 -3.655006
v 3.022383 0.041103 3.000111
v -1.600836 0.305910 -3.583077
v -3.200723 0.570335 -1.395993
v -0.317974 0.135704 -0.497272
v -2.428095 0.480208 -0.976572
v -3.018895 0.067676 3.018690
v 3.321588 0.290738 -2.840473
v -2.558356 0.388527 -3.370825
v -3.044144 0.133673 -0.060174
v 0.843474 -0.008662 2.999487
v 2.975146 0.301845 0.802826
v 1.415002 0.659820 -3.292334
v -1.592531 0.172299 -0.619916
v 2.117244 0.238349 -0.182315
v 2.997299 -0.011284 1.541039
v -1.710768 0.010547 1.623579
v -0.054065 0.801675 -1.803790
v 0.891125 0.022953 0.047380
v 1.750077 0.103616 1.171944
v -1.518402 0.794440 -2.498418
v 1.644355 0.426301 -1.701559
vn 0.0479 0.9900 0.1327
vn 0.0813 0.9967 0.0011
vn 0.0942 0.9954 0.0163
vn -0.0748 0.9934 -0.0870
vn -0.0701 0.9115 -0.4052
vn -0.2029 0.9578 -0.2038
vn -0.1637 0.9796 0.1163
vn -0.0162 0.9942 0.1062
vn 0.0441 0.9932 0.1074
vn -0.0449 0.9716 -0.2324
vn -0.0528 0.9787 0.1984
vn -0.1408 0.9887 0.0520
vn -0.1097 0.9759 0.1886
vn -0.0147 0.9995 0.0279
vn 0.0245 0.9991 0.0344
vn 0.0421 0.9991 -0.0015
vn -0.0800 0.9944 0.0686
vn 0.0423 0.9759 0.2139
vn 0.0251 0.9995 0.0167
vn 0.1256 0.9675 0.2196
vn -0.1034 0.9940 0.0363
vn -0.2100 0.9749 -0.0740
vn 0.0627 0.9933 0.0972
vn -0.1353 0.9740 0.1820
vt 0.791271 0.808127
vt 1.000000 0.995891
vt 0.713827 1.000000
vt 0.266808 0.875000
vt 0.250000 1.000000
vt 0.125000 1.000000
vt 0.829634 0.560845
vt 0.625000 0.495914
vt 0.505674 0.771377
vt 0.485814 1.000000
vt 0.154445 0.636861
vt 0.000000 0.750000
vt 0.000000 0.509983
vt 0.515539 -0.034795
vt 0.213111 0.243908
vt -0.000102 0.004538
vt 0.794807 0.312256
vt 0.441590 0.575962
vt 0.999774 0.000014
vt 0.253541 0.601519
vt 0.997916 0.674614
vt 0.000000 0.999441
vt 0.999926 0.245769
vt 1.000000 0.375000
s 1
f 24/1/1 10/2/2 15/3/3
f 23/4/4 5/5/5 11/6/6
f 17/7/7 24/1/1 21/8/8
f 20/9/9 15/3/3 3/10/10
f 8/11/11 6/12/12 12/13/13
f 13/14/14 19/15/15 9/16/16
f 9/16/16 19/15/15 12/13/13
f 13/14/14 22/17/17 21/8/8
f 23/4/4 3/10/10 5/5/5
f 20/9/9 23/4/4 8/11/11
f 23/4/4 20/9/9 3/10/10
f 24/1/1 20/9/9 7/18/18 21/8/8
f 22/17/17 17/7/7 21/8/8
f 4/19/19 22/17/17 13/14/14
f 8/11/11 19/15/15 16/20/20
f 13/14/14 7/18/18 19/15/15
f 20/9/9 24/1/1 15/3/3
f 17/7/7 2/21/21 24/1/1
f 8/11/11 16/20/20 7/18/18 20/9/9
f 23/4/4 1/22/22 6/12/12 8/11/11
f 1/22/22 23/4/4 11/6/6
f 19/15/15 8/11/11 12/13/13
f 4/19/19 18/23/23 22/17/17
f 13/14/14 21/8/8 7/18/18
f 18/23/23 14/24/24 22/17/17
f 19/15/15 7/18/18 16/20/20
f 2/21/21 17/7/7 22/17/17 14/24/24
f 2/21/21 10/2/2 24/1/1
