# Blender 4.0.2
# www.blender.org
mtllib lockerbase.mtl
o Cube
v -0.900000 0.000000 1.000000
v -0.900000 6.000000 1.000000
v -0.900000 0.000000 -1.000000
v -0.900000 6.000000 -1.000000
v 0.800000 0.000000 1.000000
v 0.800000 5.312207 1.000000
v 0.800000 0.000000 -1.000000
v 0.800000 5.312207 -1.000000
v -0.660080 0.000000 -1.000000
v -0.660080 6.000000 -1.000000
v -0.660080 0.000000 1.000000
v -0.660080 6.000000 1.000000
v 0.776292 5.043523 -0.810000
v 0.776292 0.268684 -0.810000
v 0.776292 0.268684 0.810000
v 0.776292 5.043523 0.810000
v -0.584018 5.043523 -0.810000
v -0.584018 0.268684 -0.810000
v -0.584018 0.268684 0.810000
v -0.584018 5.043523 0.810000
v 0.660261 2.364768 -0.810000
v 0.660261 2.364768 0.810000
v -0.584018 2.364768 -0.810000
v -0.584018 2.364768 0.810000
v 0.660261 3.832667 -0.810000
v 0.660261 3.832667 0.810000
v -0.584018 3.832667 -0.810000
v -0.584018 3.832667 0.810000
v 0.660261 0.802530 -0.810000
v 0.660261 0.802530 0.810000
v -0.584018 0.802530 -0.810000
v -0.584018 0.802530 0.810000
vn -1.0000 -0.0000 -0.0000
vn -0.0000 -0.0000 -1.0000
vn 0.9974 0.0535 0.0488
vn 0.9974 -0.0535 0.0488
vn 0.9969 -0.0409 0.0665
vn 0.9969 0.0409 0.0665
vn -0.0000 -0.0000 1.0000
vn -0.0000 -1.0000 -0.0000
vn 0.2183 0.9759 -0.0000
vn -0.0000 1.0000 -0.0000
vn 0.4262 0.9047 -0.0000
vn 0.9974 -0.0535 -0.0488
vn 0.9974 0.0535 -0.0488
vn 0.9969 0.0409 -0.0665
vn 0.9969 -0.0409 -0.0665
vn 1.0000 -0.0000 -0.0000
vt 0.995519 0.202411
vt 0.995519 0.936703
vt 0.004481 0.936703
vt 0.004481 0.202410
vt 0.173606 0.368050
vt 0.173606 0.998388
vt 0.962246 0.923116
vt 0.962246 0.368050
vt 0.985626 0.127152
vt 0.985626 0.992817
vt 0.893962 0.937054
vt 0.893962 0.177329
vt 0.044017 0.998388
vt 0.044017 0.368050
vt 0.600369 0.029723
vt 0.669205 0.029723
vt 0.669205 0.054955
vt 0.600369 0.054955
vt 0.901380 0.979775
vt 0.901380 0.994393
vt 0.046536 0.994393
vt 0.046536 0.979775
vt 0.901380 0.872543
vt 0.046536 0.872543
vt 0.625000 0.052419
vt 0.654990 0.052419
vt 0.625000 0.500000
vt 0.625000 0.750000
vt 0.020740 0.992817
vt 0.020740 0.127152
vt 0.112404 0.177329
vt 0.112404 0.937054
vt 0.375000 0.500000
vt 0.375000 0.750000
s 1
usemtl Material.002
f 1/1/1 2/2/1 4/3/1 3/4/1
f 9/5/2 10/6/2 8/7/2 7/8/2
f 7/9/3 8/10/4 13/11/5 14/12/6
f 11/5/7 12/6/7 2/13/7 1/14/7
f 9/15/8 7/16/8 5/17/8 11/18/8
f 10/19/9 4/20/10 2/21/10 12/22/9
f 8/23/11 10/19/9 12/22/9 6/24/11
f 3/25/8 9/26/8 11/26/8 1/25/8
f 5/8/7 6/7/7 12/6/7 11/5/7
f 3/14/2 4/13/2 10/6/2 9/5/2
f 13/27/8 16/28/8 20/28/8 17/27/8
f 6/29/12 5/30/13 15/31/14 16/32/15
f 5/30/13 7/9/3 14/12/6 15/31/14
f 8/10/4 6/29/12 16/32/15 13/11/5
f 18/33/16 17/27/16 20/28/16 19/34/16
f 14/33/7 13/27/7 17/27/7 18/33/7
f 16/28/2 15/34/2 19/34/2 20/28/2
f 15/34/10 14/33/10 18/33/10 19/34/10
f 21/27/10 23/27/10 24/28/10 22/28/10
f 25/27/10 27/27/10 28/28/10 26/28/10
f 29/27/10 31/27/10 32/28/10 30/28/10
o Cube.004
v 0.749870 2.652909 -0.817453
v 0.749870 2.652909 -0.496509
v 0.775872 2.652909 -0.817453
v 0.749870 4.164792 -0.820000
v 0.749870 1.249770 -0.814906
v 0.749870 1.135917 -0.814906
v 0.775872 1.249770 -0.814906
v 0.749870 1.249770 -0.499057
v 0.749870 1.249770 0.479057
v 0.749870 1.135917 -0.499057
v 0.775872 1.249770 -0.499057
v 0.775872 2.652909 -0.496509
v 0.775872 1.135917 -0.499057
v 0.775872 1.249770 0.479057
v 0.775872 2.652909 0.481604
v 0.775872 1.135917 0.479057
v 0.775872 1.249770 0.805094
v 0.775872 1.135916 0.805094
v 0.749870 1.249770 0.805094
v 0.775872 2.652909 0.802547
v 0.749870 2.652909 0.802547
v 0.775872 4.164792 0.800000
v 0.775872 4.278645 0.800000
v 0.749870 4.164792 0.800000
v 0.775872 4.164792 0.484151
v 0.775872 4.278645 0.484151
v 0.775872 4.164792 -0.493962
v 0.749870 4.164792 0.484151
v 0.749870 2.652909 0.481604
v 0.749870 4.164792 -0.493962
v 0.749870 4.278645 0.484151
v 0.749870 4.278645 -0.493962
v 0.749870 4.278645 0.800000
v 0.749870 4.417698 0.484151
v 0.749870 4.417698 -0.493962
v 0.749870 4.417698 0.800000
v 0.749870 4.521988 0.484151
v 0.775872 4.417698 0.484151
v 0.775872 4.521988 0.484151
v 0.775872 4.417698 -0.493962
v 0.775872 4.417698 0.800000
v 0.775872 4.521988 0.800000
v 0.775872 4.652350 0.800000
v 0.749870 4.521988 0.800000
v 0.749870 4.652350 0.800000
v 0.749870 4.755326 0.800000
v 0.749870 4.652350 0.484151
v 0.749870 4.652350 -0.493962
v 0.749870 4.755326 0.484151
v 0.775872 4.652350 0.484151
v 0.775872 4.755326 0.484151
v 0.775872 4.652350 -0.493962
v 0.775872 4.521988 -0.493962
v 0.775872 4.755326 -0.493962
v 0.775872 4.652350 -0.820000
v 0.775872 4.521988 -0.820000
v 0.775872 4.755326 -0.820000
v 0.749870 4.652350 -0.820000
v 0.749870 4.521988 -0.820000
v 0.749870 4.755326 -0.820000
v 0.749870 5.043523 -0.820000
v 0.749870 4.755326 -0.493962
v 0.749870 5.043523 -0.493962
v 0.749870 5.043523 0.484151
v 0.775872 5.043523 -0.493962
v 0.775872 5.043523 0.484151
v 0.775872 5.043523 -0.820000
v 0.775872 5.043523 0.800000
v 0.749870 5.043523 0.800000
v 0.775872 4.755326 0.800000
v 0.749870 4.417698 -0.820000
v 0.749870 4.521988 -0.493962
v 0.749870 4.278645 -0.820000
v 0.775872 4.417698 -0.820000
v 0.775872 4.278645 -0.820000
v 0.775872 4.164792 -0.820000
v 0.775872 4.278645 -0.493962
v 0.749870 1.135916 0.805094
v 0.749870 0.996864 0.805094
v 0.749870 1.135917 0.479057
v 0.749870 0.996864 0.479057
v 0.749870 0.996864 -0.499057
v 0.749870 0.892574 0.479057
v 0.775872 0.996864 0.479057
v 0.775872 0.892574 0.479057
v 0.775872 0.996864 0.805094
v 0.775872 0.996864 -0.499057
v 0.775872 0.892574 -0.499057
v 0.775872 0.996864 -0.814906
v 0.775872 1.135917 -0.814906
v 0.775872 0.892574 -0.814906
v 0.749870 0.996864 -0.814906
v 0.749870 0.892574 -0.814906
v 0.749870 0.762212 -0.814906
v 0.749870 0.892574 -0.499057
v 0.749870 0.762211 -0.499057
v 0.749870 0.762211 0.479057
v 0.749870 0.659236 -0.499057
v 0.775872 0.762211 -0.499057
v 0.775872 0.659236 -0.499057
v 0.775872 0.762211 0.479057
v 0.775872 0.762212 -0.814906
v 0.775872 0.659236 -0.814906
v 0.775872 0.262294 -0.814906
v 0.749870 0.659236 -0.814906
v 0.749870 0.262294 -0.814906
v 0.749870 0.262294 -0.499057
v 0.749870 0.262294 0.479057
v 0.775872 0.262294 -0.499057
v 0.775872 0.262294 0.479057
v 0.775872 0.262294 0.805094
v 0.775872 0.659236 0.479057
v 0.775872 0.659236 0.805094
v 0.749870 0.659236 0.479057
v 0.749870 0.659236 0.805094
v 0.749870 0.762211 0.805094
v 0.749870 0.262294 0.805094
v 0.749870 0.892574 0.805094
v 0.775872 0.762211 0.805094
v 0.775872 0.892574 0.805094
v 0.779492 3.335906 0.596652
v 0.779492 3.335906 0.687499
v 0.779492 3.424989 0.596652
v 0.779492 3.424989 0.687499
v 0.877770 3.230306 0.596652
v 0.877770 3.230306 0.687499
v 0.877770 2.913506 0.596652
v 0.877770 2.913506 0.687499
v 0.778753 2.807906 0.596652
v 0.778753 2.807906 0.687499
v 0.778753 2.717048 0.596652
v 0.778753 2.717048 0.687499
vn -1.0000 -0.0000 -0.0000
vn -0.0000 -0.0018 -1.0000
vn -0.0000 -0.0009 -1.0000
vn -0.0000 -0.0008 -1.0000
vn -0.0000 -0.0000 -1.0000
vn -0.0000 -1.0000 -0.0000
vn -0.0000 -0.0000 1.0000
vn 1.0000 -0.0000 -0.0000
vn -0.0000 0.0009 1.0000
vn -0.0000 0.0017 1.0000
vn -0.0000 0.0008 1.0000
vn -0.0000 1.0000 -0.0000
vn 0.7320 0.6813 -0.0000
vn 0.9306 0.3660 -0.0000
vn 0.9299 -0.3678 -0.0000
vn 0.7295 -0.6840 -0.0000
vt 0.994462 0.566565
vt 0.992916 0.366955
vt 0.801228 0.366955
vt 0.799681 0.566565
vt 0.798136 0.814043
vt 0.996008 0.814043
vt 0.992916 0.349008
vt 0.801228 0.349008
vt 0.207610 0.366955
vt 0.206064 0.566565
vt 0.490509 0.206841
vt 0.490495 0.198018
vt 0.396405 0.202784
vt 0.396525 0.211589
vt 0.011284 0.566565
vt 0.009738 0.366955
vt 0.009738 0.349007
vt 0.207610 0.349008
vt 0.012830 0.814043
vt 0.204518 0.814043
vt 0.204518 0.837274
vt 0.012830 0.837274
vt 0.396539 0.202778
vt 0.396419 0.211594
vt 0.490386 0.198025
vt 0.490372 0.206849
vt 0.798136 0.837274
vt 0.204518 0.866083
vt 0.798136 0.866083
vt 0.012830 0.866083
vt 0.012830 0.887690
vt 0.204518 0.887690
vt 0.204518 0.914700
vt 0.012830 0.914700
vt 0.012830 0.936035
vt 0.204518 0.936035
vt 0.798136 0.887690
vt 0.798136 0.914700
vt 0.996008 0.887690
vt 0.996008 0.914700
vt 0.996008 0.936035
vt 0.798136 0.936035
vt 0.996008 0.995744
vt 0.798136 0.995744
vt 0.204518 0.995744
vt 0.012830 0.995744
vt 0.996008 0.866083
vt 0.996008 0.837274
vt 0.207610 0.326394
vt 0.009738 0.326394
vt 0.801228 0.326394
vt 0.207610 0.308882
vt 0.009738 0.308882
vt 0.992916 0.326394
vt 0.801228 0.308882
vt 0.992916 0.308882
vt 0.992916 0.286260
vt 0.801228 0.286260
vt 0.207610 0.286260
vt 0.992916 0.267769
vt 0.801228 0.267769
vt 0.992916 0.190633
vt 0.801228 0.190633
vt 0.207610 0.190633
vt 0.207610 0.267769
vt 0.009738 0.267769
vt 0.009738 0.190633
vt 0.009738 0.286260
vt 0.991737 0.762376
vt 0.991737 1.000497
vt -0.009241 1.000497
vt -0.009241 0.762372
vt -0.009241 0.643073
vt 0.991737 0.643084
vt -0.009241 0.506141
vt 0.991737 0.506163
vt -0.009241 0.404233
vt 0.991737 0.404263
vt -0.009241 0.187551
vt 0.991737 0.187551
s 1
usemtl Material.001
f 153/103/24 155/104/24 156/105/24 154/106/24
f 154/106/29 158/107/30 157/108/30 153/103/29
f 158/107/30 160/109/31 159/110/31 157/108/30
f 160/109/31 162/111/32 161/112/32 159/110/31
f 162/111/24 164/113/24 163/114/24 161/112/24
usemtl Material.002
f 33/35/17 37/36/17 40/37/17 34/38/17
f 34/38/17 62/39/17 36/40/17 33/35/17
f 35/35/18 39/36/19 37/36/19 33/35/18
f 36/40/20 108/40/20 35/35/18 33/35/18
f 40/37/17 37/36/17 38/41/17 42/42/17
f 37/36/19 39/36/19 122/41/21 38/41/21
f 34/38/17 40/37/17 41/43/17 61/44/17
f 40/45/22 43/46/22 46/47/22 41/48/22
f 45/46/23 43/46/23 40/45/23 42/45/23
f 47/44/24 46/43/24 43/37/24 44/38/24
f 44/38/24 43/37/24 39/36/24 35/35/24
f 43/37/24 45/42/24 122/41/24 39/36/24
f 52/49/24 49/50/24 46/43/24 47/44/24
f 48/47/21 112/48/21 41/48/21 46/47/21
f 49/50/24 50/51/24 48/52/24 46/43/24
f 110/51/23 50/51/23 49/50/25 51/50/25
f 51/50/25 49/50/25 52/49/26 53/49/26
f 52/49/26 54/53/27 56/53/27 53/49/26
f 47/44/24 57/54/24 54/53/24 52/49/24
f 57/54/24 58/55/24 55/56/24 54/53/24
f 56/53/27 54/53/27 55/56/23 65/56/23
f 44/38/24 59/39/24 57/54/24 47/44/24
f 58/57/21 57/57/21 60/58/21 63/58/21
f 60/58/28 57/57/28 59/59/28 62/60/28
f 61/44/17 60/54/17 62/39/17 34/38/17
f 53/49/17 56/53/17 60/54/17 61/44/17
f 60/54/17 56/53/17 65/56/17 63/55/17
f 63/58/22 64/60/22 109/59/22 58/57/22
f 64/61/17 63/55/17 66/62/17 67/63/17
f 63/55/17 65/56/17 68/64/17 66/62/17
f 66/58/28 70/57/28 72/59/28 67/60/28
f 66/62/17 68/64/17 76/65/17 69/66/17
f 71/57/21 70/57/21 66/58/21 69/58/21
f 58/55/24 70/62/24 73/64/24 55/56/24
f 109/61/24 72/63/24 70/62/24 58/55/24
f 70/62/24 71/66/24 74/65/24 73/64/24
f 65/56/23 55/56/23 73/64/23 68/64/23
f 68/64/23 73/64/23 74/65/23 76/65/23
f 71/66/24 82/67/24 75/68/24 74/65/24
f 76/65/23 74/65/23 75/68/23 77/68/23
f 69/66/17 76/65/17 77/68/17 79/67/17
f 79/67/17 77/68/17 78/69/17 81/70/17
f 77/68/23 75/68/23 102/69/23 78/69/23
f 104/71/17 69/66/17 79/67/17 80/72/17
f 79/58/28 82/57/28 84/59/28 80/60/28
f 83/57/21 82/57/21 79/58/21 81/58/21
f 85/71/24 84/72/24 82/67/24 71/66/24
f 82/67/24 83/70/24 102/69/24 75/68/24
f 88/73/24 87/74/24 84/72/24 85/71/24
f 86/59/23 94/60/23 80/60/23 84/59/23
f 87/74/24 89/75/24 86/76/24 84/72/24
f 90/74/21 87/74/21 88/73/21 91/73/21
f 92/75/21 89/75/21 87/74/21 90/74/21
f 91/73/17 104/71/17 80/72/17 90/74/17
f 90/74/17 80/72/17 94/76/17 92/75/17
f 93/77/21 99/77/21 89/75/21 92/75/21
f 92/75/17 94/76/17 95/78/17 93/77/17
f 94/76/17 81/70/17 96/79/17 95/78/17
f 81/58/22 94/60/22 86/59/22 83/57/22
f 96/79/28 98/79/28 97/78/28 95/78/28
f 95/78/28 97/78/28 99/77/28 93/77/28
f 86/76/24 97/78/24 98/79/24 83/70/24
f 89/75/24 99/77/24 97/78/24 86/76/24
f 101/80/28 100/80/28 98/79/28 96/79/28
f 83/70/24 98/79/24 100/80/24 102/69/24
f 78/69/23 102/69/23 100/80/23 101/80/23
f 81/70/17 78/69/17 101/80/17 96/79/17
f 103/81/17 67/63/17 104/71/17 91/73/17
f 91/73/21 88/73/21 106/81/21 103/81/21
f 85/59/23 104/60/23 67/60/23 72/59/23
f 69/58/22 104/60/22 85/59/22 71/57/22
f 105/82/17 64/61/17 67/63/17 103/81/17
f 103/81/21 106/81/21 107/82/21 105/82/21
f 107/82/24 106/81/24 72/63/24 109/61/24
f 106/81/24 88/73/24 85/71/24 72/63/24
f 108/40/24 107/82/24 109/61/24 59/39/24
f 105/82/21 107/82/21 108/40/20 36/40/20
f 109/59/23 64/60/23 62/60/23 59/59/23
f 35/35/24 108/40/24 59/39/24 44/38/24
f 36/40/17 62/39/17 64/61/17 105/82/17
f 61/44/17 41/43/17 51/50/17 53/49/17
f 51/50/17 41/43/17 112/52/17 110/51/17
f 110/51/17 112/52/17 113/83/17 111/84/17
f 111/84/23 118/84/23 50/51/23 110/51/23
f 42/45/28 112/48/28 48/47/28 45/46/28
f 112/52/17 42/42/17 114/85/17 113/83/17
f 111/84/17 113/83/17 115/86/17 150/87/17
f 114/45/22 119/46/22 116/47/22 113/48/22
f 117/47/21 115/48/21 113/48/21 116/47/21
f 48/52/24 116/83/24 119/85/24 45/42/24
f 50/51/24 118/84/24 116/83/24 48/52/24
f 118/84/24 152/87/24 117/86/24 116/83/24
f 45/42/24 119/85/24 121/88/24 122/41/24
f 120/46/23 119/46/23 114/45/23 127/45/23
f 119/85/24 120/89/24 123/90/24 121/88/24
f 38/41/21 122/41/21 121/88/21 124/88/21
f 124/88/21 121/88/21 123/90/21 125/90/21
f 42/42/17 38/41/17 124/88/17 114/85/17
f 114/85/17 124/88/17 125/90/17 127/89/17
f 127/89/17 125/90/17 126/91/17 128/92/17
f 125/90/21 123/90/21 134/91/21 126/91/21
f 127/45/28 115/48/28 117/47/28 120/46/28
f 115/86/17 127/89/17 128/92/17 129/93/17
f 128/45/22 131/46/22 133/47/22 129/48/22
f 128/92/17 126/91/17 137/94/17 130/95/17
f 132/46/23 131/46/23 128/45/23 130/45/23
f 120/89/24 131/92/24 134/91/24 123/90/24
f 117/86/24 133/93/24 131/92/24 120/89/24
f 131/92/24 132/95/24 135/94/24 134/91/24
f 126/91/21 134/91/21 135/94/21 137/94/21
f 137/94/21 135/94/21 136/96/21 138/96/21
f 132/95/24 141/97/24 136/96/24 135/94/24
f 130/95/17 137/94/17 138/96/17 139/97/17
f 138/96/22 136/96/22 141/97/22 139/97/22
f 139/97/22 141/97/22 142/98/22 140/98/22
f 146/99/17 130/95/17 139/97/17 140/98/17
f 144/99/24 142/98/24 141/97/24 132/95/24
f 145/100/24 143/101/24 142/98/24 144/99/24
f 140/98/22 142/98/22 143/101/22 149/101/22
f 144/47/21 146/48/21 129/48/21 133/47/21
f 151/102/24 145/100/24 144/99/24 133/93/24
f 130/45/28 146/48/28 144/47/28 132/46/28
f 147/100/17 146/99/17 140/98/17 149/101/17
f 148/102/17 129/93/17 146/99/17 147/100/17
f 147/100/23 145/100/23 151/102/23 148/102/23
f 149/101/23 143/101/23 145/100/23 147/100/23
f 150/87/17 115/86/17 129/93/17 148/102/17
f 148/102/23 151/102/23 152/87/23 150/87/23
f 152/87/24 151/102/24 133/93/24 117/86/24
f 150/87/23 152/87/23 118/84/23 111/84/23
