<svg xmlns="http://www.w3.org/2000/svg" width="16" height="16" viewBox="0 0 16 16"><defs><mask id="a" maskUnits="userSpaceOnUse"><path d="M-.542-.3h17.084v15.8H-.542Z" style="fill:#fff;fill-opacity:1"/><path d="M7.732 9A2 2 0 0 1 5 9.732 2 2 0 0 1 4.268 7L6 8Z" style="fill:#000;fill-opacity:1;stroke:none;stroke-width:1;stroke-linecap:round;stroke-linejoin:round;stroke-dasharray:none"/><path d="M-8.234 9a2 2 0 0 1-2.732.732A2 2 0 0 1-11.698 7l1.732 1Z" style="fill:#000;fill-opacity:1;stroke:none;stroke-width:1;stroke-linecap:round;stroke-linejoin:round;stroke-dasharray:none" transform="scale(-1 1)"/><path d="M6.844 11h2.312" style="fill:none;stroke:#000;stroke-width:1;stroke-linecap:round;stroke-linejoin:round;stroke-dasharray:none;stroke-opacity:1"/></mask></defs><path d="M1 2Q.75 4.937 2 8a6 6 0 0 0 12 0q1.25-3.063 1-6c-1.541 1.947-4.446 1.69-7 2-2.554-.31-5.459-.053-7-2Z" mask="url(#a)" style="fill:#fff;fill-opacity:1;stroke:#fff;stroke-width:1;stroke-linecap:round;stroke-linejoin:miter;stroke-dasharray:none;stroke-opacity:1"/></svg>