<svg xmlns="http://www.w3.org/2000/svg" xml:space="preserve" width="16" height="16" viewBox="0 0 16 16"><defs><mask id="a" maskUnits="userSpaceOnUse"><path d="M1.5 6h13v10h-13z" style="fill:#fff;fill-opacity:1"/><path d="M7.5 3c-.554 0-1 .446-1 1v3c0 .554.446 1 1 1H8l.61-.715c-.07.136-.11.29-.11.453v1c0 .554.446 1 1 1h3c.554 0 1-.446 1-1v-1c0-.554-.446-1-1-1h-3c-.22 0-.423.07-.588.19l.588-.69h3V4c0-.554-.446-1-1-1h-1c-.554 0-1 .446-1 1 0-.554-.446-1-1-1ZM4 4c-.554 0-1 .446-1 1v3c0 .554.446 1 1 1h1c.554 0 1-.446 1-1V5c0-.554-.446-1-1-1Z" style="fill:#000;fill-opacity:1;stroke:none;stroke-width:1;stroke-linecap:round;stroke-linejoin:round;stroke-miterlimit:6;stroke-dasharray:none;stroke-opacity:1"/></mask></defs><rect width="3" height="5" x="3" y="4" rx="1" ry="1" style="fill:none;stroke:#8da5f3;stroke-width:1;stroke-linecap:round;stroke-linejoin:round;stroke-miterlimit:6;stroke-dasharray:none;stroke-opacity:1"/><path d="M8 8h-.5c-.554 0-1-.446-1-1V4c0-.554.446-1 1-1h1c.554 0 1 .446 1 1v2.237M9.5 6.237V4c0-.554.446-1 1-1h1c.554 0 1 .446 1 1v2.237" style="fill:none;stroke:#8da5f3;stroke-width:1;stroke-linecap:round;stroke-linejoin:round;stroke-miterlimit:6;stroke-dasharray:none"/><rect width="3" height="5" x="6.737" y="-13.5" rx="1" ry="1" style="fill:none;stroke:#8da5f3;stroke-width:1;stroke-linecap:round;stroke-linejoin:round;stroke-miterlimit:6;stroke-dasharray:none;stroke-opacity:1" transform="rotate(90)"/><g mask="url(#a)"><path d="M12.5 10c0 1.662-1.338 3-3 3m-3 0c-1.662 0-3-1.338-3-3V8M5 13v1M11 13v1" style="fill:none;stroke:#8da5f3;stroke-width:2;stroke-linecap:round;stroke-linejoin:round;stroke-miterlimit:6;stroke-dasharray:none;stroke-opacity:1"/></g></svg>