<svg xmlns="http://www.w3.org/2000/svg" width="16" height="16" viewBox="0 0 16 16"><path d="M6 3a3 3 0 0 0-3 3 3 3 0 0 0 .883 2.117l-.004.004L8 13l.002-9.234A3 3 0 0 0 6 3" style="fill:#8da5f3;fill-opacity:1;stroke:#8da5f3;stroke-width:2;stroke-linecap:round;stroke-linejoin:round;stroke-dasharray:none"/><path d="M10 3a3 3 0 0 1 3 3 3 3 0 0 1-.883 2.117l.004.004L8 13l-.002-9.234A3 3 0 0 1 10 3" style="fill:none;fill-opacity:1;stroke:#8da5f3;stroke-width:2;stroke-linecap:round;stroke-linejoin:round;stroke-dasharray:none"/></svg>