<svg xmlns="http://www.w3.org/2000/svg" width="16" height="16" viewBox="0 0 16 16"><path d="M2 4h12v8H2z" style="fill:none;stroke:#ffca5f;stroke-width:2;stroke-linecap:round;stroke-linejoin:round;stroke-miterlimit:6;stroke-dasharray:none"/><path d="M5 4a3 3 0 0 1-3 3V4Z" style="fill:#ffca5f;fill-opacity:1;stroke:none;stroke-width:1;stroke-linecap:round;stroke-linejoin:round;stroke-miterlimit:6;stroke-dasharray:none;stroke-opacity:1"/><path d="M-11 4a3 3 0 0 1-3 3V4Z" style="fill:#ffca5f;fill-opacity:1;stroke:none;stroke-width:1;stroke-linecap:round;stroke-linejoin:round;stroke-miterlimit:6;stroke-dasharray:none;stroke-opacity:1" transform="scale(-1 1)"/><path d="M5-12a3 3 0 0 1-3 3v-3z" style="fill:#ffca5f;fill-opacity:1;stroke:none;stroke-width:1;stroke-linecap:round;stroke-linejoin:round;stroke-miterlimit:6;stroke-dasharray:none;stroke-opacity:1" transform="scale(1 -1)"/><path d="M-11-12a3 3 0 0 1-3 3v-3z" style="fill:#ffca5f;fill-opacity:1;stroke:none;stroke-width:1;stroke-linecap:round;stroke-linejoin:round;stroke-miterlimit:6;stroke-dasharray:none;stroke-opacity:1" transform="scale(-1)"/><ellipse cx="8" cy="8" rx="2" ry="2.5" style="fill:#ffca5f;fill-opacity:1;stroke:none;stroke-width:1;stroke-linecap:round;stroke-linejoin:round;stroke-miterlimit:6;stroke-dasharray:none;stroke-opacity:1"/><circle cx="4.5" cy="8" r=".5" style="fill:#ffca5f;fill-opacity:1;stroke:none;stroke-width:1;stroke-linecap:round;stroke-linejoin:round;stroke-miterlimit:6;stroke-dasharray:none;stroke-opacity:1"/><circle cx="11.5" cy="8" r=".5" style="fill:#ffca5f;fill-opacity:1;stroke:none;stroke-width:1;stroke-linecap:round;stroke-linejoin:round;stroke-miterlimit:6;stroke-dasharray:none;stroke-opacity:1"/></svg>