<svg xmlns="http://www.w3.org/2000/svg" width="16" height="16" viewBox="0 0 16 16"><defs><mask id="a" maskUnits="userSpaceOnUse"><path d="M0 0h16v16H0Z" style="fill:#fff;fill-opacity:1"/><path d="m6.586 9.414 2.828-2.828" style="fill:none;stroke:#000;stroke-width:4;stroke-linecap:round;stroke-linejoin:round;stroke-miterlimit:6;stroke-dasharray:none;stroke-opacity:1"/></mask></defs><g mask="url(#a)"><path d="M-5.666 9.314h2c1.108 0 2 .892 2 2s-.892 2-2 2h-2c-1.108 0-2-.892-2-2s.892-2 2-2" style="fill:none;stroke:#ffca5f;stroke-width:2;stroke-linecap:round;stroke-linejoin:round;stroke-miterlimit:6;stroke-opacity:1" transform="rotate(-45)"/><path d="M-5.666-13.314h2c1.108 0 2 .892 2 2s-.892 2-2 2h-2c-1.108 0-2-.892-2-2s.892-2 2-2" style="fill:none;stroke:#ffca5f;stroke-width:2;stroke-linecap:round;stroke-linejoin:round;stroke-miterlimit:6;stroke-opacity:1" transform="rotate(135)"/></g><path d="m6.586 9.414 2.828-2.828" style="fill:none;stroke:#ffca5f;stroke-width:2;stroke-linecap:round;stroke-linejoin:round;stroke-miterlimit:6;stroke-opacity:1"/></svg>