<svg xmlns="http://www.w3.org/2000/svg" width="16" height="16" viewBox="0 0 16 16"><path d="M12 12.598a4 2 0 0 1-2 1.732 4 2 0 0 1-4 0 4 2 0 0 1-2-1.732" style="fill:none;stroke:#8eef97;stroke-width:1;stroke-linecap:round;stroke-linejoin:round;stroke-miterlimit:6;stroke-dasharray:none;stroke-opacity:1"/><ellipse cx="8" cy="3.398" rx="4" ry="2" style="fill:none;stroke:#8eef97;stroke-width:1;stroke-linecap:round;stroke-linejoin:round;stroke-miterlimit:6;stroke-dasharray:none;stroke-opacity:1"/><path d="M4 12.598v-9.2M12 3.398v9.2M12 5.236a4 2 0 0 1-2 1.732 4 2 0 0 1-4 0 4 2 0 0 1-2-1.732" style="fill:none;stroke:#8eef97;stroke-width:1;stroke-linecap:round;stroke-linejoin:round;stroke-miterlimit:6;stroke-dasharray:none;stroke-opacity:1"/><path d="M12 7.077a4 2 0 0 1-2 1.732 4 2 0 0 1-4 0 4 2 0 0 1-2-1.732" style="fill:none;stroke:#8eef97;stroke-width:1;stroke-linecap:round;stroke-linejoin:round;stroke-miterlimit:6;stroke-dasharray:none;stroke-opacity:1"/><path d="M12 8.917a4 2 0 0 1-2 1.732 4 2 0 0 1-4 0 4 2 0 0 1-2-1.732" style="fill:none;stroke:#8eef97;stroke-width:1;stroke-linecap:round;stroke-linejoin:round;stroke-miterlimit:6;stroke-dasharray:none;stroke-opacity:1"/><path d="M12 10.758a4 2 0 0 1-2 1.732 4 2 0 0 1-4 0 4 2 0 0 1-2-1.732" style="fill:none;stroke:#8eef97;stroke-width:1;stroke-linecap:round;stroke-linejoin:round;stroke-miterlimit:6;stroke-dasharray:none;stroke-opacity:1"/><path d="m6.338 4.987-.088 9.165M5.338 4.987l-.088 9.165" style="fill:none;stroke:#8eef97;stroke-width:.5;stroke-linecap:round;stroke-linejoin:round;stroke-miterlimit:6;stroke-dasharray:none;stroke-dashoffset:0;stroke-opacity:1"/></svg>