<svg xmlns="http://www.w3.org/2000/svg" width="16" height="16" viewBox="0 0 16 16"><defs><mask id="c" maskUnits="userSpaceOnUse"><path d="M.708 0H13v16.761H.708Z" style="fill:#fff;fill-opacity:1"/><circle cx="11" cy="5" r="3" fill="none" stroke="#8da5f3" stroke-linecap="round" stroke-linejoin="round" stroke-width="2" style="fill:#000;fill-opacity:1;stroke:none"/></mask><mask id="a" maskUnits="userSpaceOnUse"><path d="M5.204 0H15v14.363H5.204Z" style="fill:#fff;fill-opacity:1"/><path d="M.708 0H13v16.761H.708Z" style="fill:#fff;fill-opacity:1"/><circle cx="11" cy="5" r="3" fill="none" stroke="#8da5f3" stroke-linecap="round" stroke-linejoin="round" stroke-width="2" style="fill:#000;fill-opacity:1;stroke:none"/></mask><mask id="b" maskUnits="userSpaceOnUse"><path d="M1.62 0H13v10.144H1.62Z" style="fill:#fff;fill-opacity:1"/><path d="M.708 0H13v16.761H.708Z" style="fill:#fff;fill-opacity:1"/><circle cx="11" cy="5" r="3" fill="none" stroke="#8da5f3" stroke-linecap="round" stroke-linejoin="round" stroke-width="2" style="fill:#000;fill-opacity:1;stroke:none"/></mask></defs><path d="M13 7c-3 1-2.836.704-5 3 1-4.368-.774-7.577 3-8" mask="url(#a)" style="fill:#8da5f3;fill-opacity:1;stroke:#8da5f3;stroke-width:2;stroke-linecap:round;stroke-linejoin:miter;stroke-miterlimit:6;stroke-dasharray:none"/><path d="M11 8c-3.013.994-2-3-6-3 1.5-1.531 3-3 6-3" mask="url(#b)" style="fill:#8da5f3;fill-opacity:1;stroke:#8da5f3;stroke-width:2;stroke-linecap:round;stroke-linejoin:miter;stroke-miterlimit:6;stroke-dasharray:none"/><circle cx="11" cy="5" r="3.5" fill="none" stroke="#8da5f3" stroke-linecap="round" stroke-linejoin="round" stroke-width="2" style="stroke-width:1;stroke-dasharray:none"/><path d="M11 8a19.55 19.55 0 0 0-8 5c.47-4.524 4.226-10.577 8-11" mask="url(#c)" style="fill:#8da5f3;fill-opacity:1;stroke:#8da5f3;stroke-width:2;stroke-linecap:round;stroke-linejoin:miter;stroke-miterlimit:6;stroke-dasharray:none"/><circle cx="12" cy="4" r="1" style="fill:#8da5f3;fill-opacity:1;stroke:none;stroke-width:2;stroke-linecap:round;stroke-linejoin:miter;stroke-miterlimit:6;stroke-dasharray:none"/></svg>