<svg xmlns="http://www.w3.org/2000/svg" xml:space="preserve" width="16" height="16" viewBox="0 0 16 16"><path d="M8 2a4.25 4.25 0 0 0-4.25 4.25 4.25 4.25 0 0 0 1.756 3.428L5.5 9.75a2.5 2.5 0 0 0 2.5 2.5 2.5 2.5 0 0 0 2.5-2.5l-.002-.074A4.25 4.25 0 0 0 12.25 6.25 4.25 4.25 0 0 0 8 2z" style="fill:none;fill-opacity:1;stroke:#8da5f3;stroke-width:2;stroke-linecap:round;stroke-miterlimit:6;stroke-dasharray:none;stroke-opacity:1"/><path d="M9.75 12.375a1.75 1.75 0 0 1-.875 1.516 1.75 1.75 0 0 1-1.75 0 1.75 1.75 0 0 1-.875-1.516z" style="fill:#8da5f3;fill-opacity:1;stroke:#8da5f3;stroke-width:1.75007;stroke-linecap:round;stroke-linejoin:round;stroke-miterlimit:6;stroke-dasharray:none;stroke-opacity:1"/><circle cx="6.25" cy="4.5" r="1.75" style="fill:#8da5f3;fill-opacity:1;stroke:none;stroke-width:3.50013;stroke-linecap:round;stroke-miterlimit:6"/></svg>