<svg xmlns="http://www.w3.org/2000/svg" width="16" height="16" viewBox="0 0 16 16"><defs><mask id="a" maskUnits="userSpaceOnUse"><path d="M3 9h10v6H3Z" style="fill:#fff;fill-opacity:1"/><path d="M6 1v6.535A4 4 0 0 0 4 11a4 4 0 0 0 4 4 4 4 0 0 0 4-4 4 4 0 0 0-2-3.465V1Z" style="fill:none;fill-opacity:1;stroke:#000;stroke-width:3;stroke-linecap:round;stroke-linejoin:round;stroke-miterlimit:6;stroke-dasharray:none;stroke-opacity:1"/></mask></defs><path d="M6 1v6.535A4 4 0 0 0 4 11a4 4 0 0 0 4 4 4 4 0 0 0 4-4 4 4 0 0 0-2-3.465V1z" style="fill:none;fill-opacity:1;stroke:#8eef97;stroke-width:2;stroke-linecap:round;stroke-linejoin:round;stroke-miterlimit:6;stroke-dasharray:none;stroke-opacity:1"/><path d="M5 1h6v2H5z" style="fill:#8eef97;fill-opacity:1;stroke:#8eef97;stroke-width:2;stroke-linecap:round;stroke-linejoin:round;stroke-miterlimit:6;stroke-dasharray:none;stroke-opacity:1"/><path d="M4 10h8v4H4Z" mask="url(#a)" style="fill:#8eef97;fill-opacity:1;stroke:none;stroke-width:2;stroke-linecap:round;stroke-linejoin:round;stroke-miterlimit:6;stroke-dasharray:none;stroke-opacity:1"/></svg>