<svg xmlns="http://www.w3.org/2000/svg" width="16" height="16" viewBox="0 0 16 16"><defs><mask id="a" maskUnits="userSpaceOnUse"><path d="M0 0h16v16H0Z" style="fill:#fff;fill-opacity:1"/><g style="fill:#000;fill-opacity:1;stroke:#000;stroke-width:4;stroke-dasharray:none;stroke-opacity:1"><path d="M13.96 2.04C13.75 7.034 9.878 9.311 6.105 12.14L3.859 9.896l5.463-6.97Z" style="fill:#000;fill-opacity:1;stroke:#000;stroke-width:4;stroke-linecap:round;stroke-linejoin:round;stroke-dasharray:none;stroke-opacity:1" transform="matrix(-1 0 0 1 16 0)"/><path d="M10.328 4.269h1.971v3.175h-1.971z" style="fill:#000;fill-opacity:1;stroke:#000;stroke-width:4;stroke-linecap:round;stroke-linejoin:round;stroke-dasharray:none;stroke-opacity:1" transform="rotate(135 8 3.314)scale(1 -1)"/><path d="M8.686 4.269h5.256v1.314H8.686z" style="fill:#000;fill-opacity:1;stroke:#000;stroke-width:4;stroke-linecap:round;stroke-linejoin:round;stroke-dasharray:none;stroke-opacity:1" transform="rotate(135 8 3.314)scale(1 -1)"/></g></mask></defs><path d="M13.96 2.04C13.75 7.034 9.878 9.311 6.105 12.14L3.859 9.896l5.463-6.97Z" style="fill:none;stroke:#fc7f7f;stroke-width:2.07852;stroke-linecap:round;stroke-linejoin:round;stroke-dasharray:none;stroke-opacity:1"/><path d="M10.328 4.269h1.971v3.175h-1.971z" style="fill:#fc7f7f;fill-opacity:1;stroke:#fc7f7f;stroke-width:2.07852;stroke-linecap:round;stroke-linejoin:round;stroke-dasharray:none;stroke-opacity:1" transform="rotate(45)"/><path d="M8.686 4.269h5.256v1.314H8.686z" style="fill:none;fill-opacity:1;stroke:#fc7f7f;stroke-width:2.07852;stroke-linecap:round;stroke-linejoin:round;stroke-dasharray:none;stroke-opacity:1" transform="rotate(45)"/><g mask="url(#a)" transform="matrix(-1 0 0 1 16 0)"><path d="M13.96 2.04C13.75 7.034 9.878 9.311 6.105 12.14L3.859 9.896l5.463-6.97Z" style="fill:none;stroke:#fc7f7f;stroke-width:2.07852;stroke-linecap:round;stroke-linejoin:round;stroke-dasharray:none;stroke-opacity:1"/><path d="M10.328 4.27H12.3v3.174h-1.97z" style="fill:#fc7f7f;fill-opacity:1;stroke:#fc7f7f;stroke-width:2.07852;stroke-linecap:round;stroke-linejoin:round;stroke-dasharray:none;stroke-opacity:1" transform="rotate(45)"/><path d="M8.686 4.27h5.256v1.314H8.686z" style="fill:none;fill-opacity:1;stroke:#fc7f7f;stroke-width:2.07852;stroke-linecap:round;stroke-linejoin:round;stroke-dasharray:none;stroke-opacity:1" transform="rotate(45)"/></g></svg>